<svg width="420" height="534" viewBox="0 0 420 534" fill="none" xmlns="http://www.w3.org/2000/svg">
<path d="M235.291 0H359.92C359.904 73.7516 359.951 147.503 360.062 221.255C360.094 240.898 367.152 257.58 381.236 271.299C388.334 278.198 398.06 287.996 410.416 300.693C413.854 304.225 414.603 310.173 414.603 315.669C414.635 350.507 414.639 385.332 414.615 420.146C414.615 420.694 414.345 420.947 413.806 420.908C393.358 419.23 375.443 404.98 370.043 384.948C366.974 373.6 368.211 356.613 368.199 343.183C368.191 340.629 367.109 339.317 364.951 339.246C324.864 337.961 293.424 307.425 292.58 267.088C292.485 262.092 286.251 262.603 286.275 266.767C286.584 309.9 318.214 341.482 361.038 345.61C361.434 345.649 361.633 345.863 361.633 346.252C361.847 368.282 359.135 387.374 373.516 406.157C373.754 406.475 373.877 406.831 373.885 407.228C373.893 434.762 373.889 462.284 373.873 489.794C373.873 508.958 345.669 513.561 339.055 494.992C338.294 492.859 337.913 489.497 337.913 484.905C337.905 450.567 337.901 416.233 337.901 381.903C337.901 378.917 336.724 376.038 333.143 377.549C332.617 377.775 332.169 378.15 331.854 378.627C331.539 379.105 331.371 379.665 331.371 380.237C331.363 423.1 331.347 465.964 331.323 508.827C331.311 522.376 318.179 531.833 305.57 525.968C297.255 522.102 295.363 514.763 295.375 505.508C295.447 463.446 295.316 421.483 294.983 379.619C294.979 379.234 294.876 378.855 294.685 378.52C294.493 378.185 294.219 377.904 293.888 377.703C290.546 375.717 288.773 378.5 288.785 381.581C289.047 436.562 288.956 473.723 288.511 493.065C288.408 497.284 286.283 501.099 282.136 504.509C271.287 513.43 255.216 507.292 253.016 494.053C252.532 491.103 252.357 487.359 252.492 482.823C253.182 460.519 252.885 438.132 252.837 415.805C252.837 413.949 252.29 410.428 252.754 407.656C252.816 407.27 252.999 406.916 253.277 406.645C262.73 397.153 272.032 387.525 281.184 377.763C293.21 364.928 296.22 345.776 289.915 329.753C276.89 296.612 233.352 289.951 210.775 317.275C210.719 317.344 210.643 317.394 210.557 317.418C210.472 317.442 210.381 317.439 210.297 317.409C210.213 317.379 210.141 317.323 210.09 317.25C210.039 317.177 210.013 317.09 210.014 317.001C209.958 309.777 210.073 302.477 210.359 295.102C211.136 274.856 218.257 257.274 231.723 242.357C232.758 241.215 233.828 240.573 235.482 240.573C249.201 240.613 262.92 240.64 276.64 240.656C281.707 240.656 281.85 234.245 277.532 234.233C263.702 234.169 250.414 234.078 237.67 233.959C236.037 233.951 235.22 233.13 235.22 231.497L235.291 0ZM302.465 237.122C302.466 236.721 302.387 236.323 302.235 235.952C302.082 235.581 301.857 235.243 301.574 234.959C301.29 234.674 300.954 234.449 300.583 234.294C300.212 234.14 299.815 234.06 299.413 234.06L293.394 234.049C292.993 234.048 292.595 234.127 292.224 234.28C291.853 234.433 291.515 234.657 291.231 234.941C290.947 235.224 290.721 235.561 290.567 235.931C290.412 236.302 290.333 236.699 290.332 237.101L290.331 237.482C290.33 237.883 290.409 238.281 290.562 238.652C290.715 239.023 290.939 239.36 291.223 239.645C291.506 239.929 291.843 240.155 292.213 240.309C292.584 240.464 292.981 240.543 293.383 240.544L299.402 240.554C299.803 240.555 300.201 240.477 300.572 240.324C300.943 240.171 301.281 239.946 301.565 239.663C301.85 239.38 302.075 239.043 302.23 238.672C302.384 238.302 302.464 237.904 302.464 237.503L302.465 237.122Z" fill="white"/>
<path d="M59.6983 0H184.291L184.089 233.412C184.089 233.816 183.887 234.019 183.482 234.019C169.469 234.074 155.591 234.078 141.848 234.031C138.363 234.007 137.161 240.525 143.918 240.549C157.78 240.597 171.646 240.605 185.516 240.573C185.905 240.573 186.234 240.716 186.504 241.001C207.82 263.4 210.473 287.096 209.497 316.799C209.482 317.362 209.279 317.441 208.891 317.037C205.239 313.266 201.444 309.507 197.055 306.938C176.488 294.935 149.057 299.515 135.103 319.582C125.278 333.702 123.612 352.152 131.44 367.628C133.359 371.411 136.789 375.947 141.729 381.236C149.128 389.143 156.658 396.907 164.319 404.528C165.016 405.218 165.794 406.134 166.65 407.276C166.896 407.601 167.023 407.965 167.031 408.37C167.221 444.104 167.126 471.939 166.745 491.876C166.329 514.346 130.952 515.417 130.881 488.081C130.785 452.371 130.773 416.661 130.845 380.951C130.857 375.301 124.338 375.681 124.326 382.367C124.271 423.715 124.247 465.067 124.255 506.424C124.255 514.453 122.459 521.329 115.571 525.064C102.581 532.118 88.3901 523.53 88.3663 508.827C88.3187 466.447 88.287 424.068 88.2711 381.688C88.2711 375.503 81.7405 375.55 81.7405 381.474C81.7485 416.582 81.7405 451.697 81.7168 486.82C81.7049 513.561 45.7212 513.93 45.745 486.451C45.7767 460.06 45.7767 433.668 45.745 407.276C45.7449 406.889 45.8699 406.51 46.1019 406.193C60.412 387.339 58.0211 368.413 57.9378 345.978C57.9378 345.741 58.0568 345.61 58.2947 345.586C98.18 342.184 130.107 313.551 133.176 272.762C133.39 269.764 134.164 267.064 132.498 264.304C132.268 263.924 131.939 263.698 131.511 263.626C128.72 263.119 127.26 264.297 127.133 267.159C125.528 304.88 98.751 335.177 61.1258 338.425C58.4612 338.655 55.8997 338.944 53.4413 339.293C52.9127 339.369 52.4284 339.63 52.0753 340.029C51.7222 340.428 51.5233 340.939 51.5143 341.47C51.2883 354.638 52.6681 370.673 50.1582 382.069C45.5071 403.1 28.4134 419.242 5.65741 420.92C5.24504 420.951 5.03886 420.757 5.03886 420.337C4.98335 384.016 4.98731 347.719 5.05075 311.446C5.05075 307.176 7.41795 302.786 10.6535 299.455C20.7091 289.091 30.844 278.805 41.0582 268.599C53.2708 256.394 59.4089 240.886 59.4723 222.076C59.7102 148.046 59.7856 74.0213 59.6983 0ZM129.298 237.078C129.295 236.274 128.973 235.504 128.402 234.937C127.831 234.37 127.058 234.053 126.254 234.056L120.211 234.077C119.813 234.078 119.419 234.158 119.051 234.312C118.684 234.466 118.35 234.69 118.069 234.973C117.789 235.255 117.566 235.591 117.415 235.959C117.264 236.328 117.187 236.722 117.188 237.121L117.19 237.501C117.192 238.306 117.515 239.076 118.086 239.643C118.656 240.21 119.429 240.527 120.234 240.524L126.276 240.503C126.675 240.502 127.069 240.422 127.436 240.268C127.804 240.114 128.137 239.89 128.418 239.607C128.699 239.324 128.921 238.989 129.072 238.621C129.223 238.252 129.3 237.857 129.299 237.459L129.298 237.078Z" fill="white"/>
<path d="M53.602 0H59.9746C60.06 74.0184 59.9862 148.041 59.7532 222.067C59.6911 240.877 53.6796 256.384 41.7189 268.588C31.7154 278.794 21.7895 289.08 11.9413 299.444C8.77252 302.775 6.45414 307.164 6.45414 311.434C6.39201 347.706 6.38813 384.001 6.4425 420.321C6.4425 420.741 6.64442 420.935 7.04829 420.904C29.3349 419.226 46.076 403.085 50.6312 382.055C53.0894 370.659 51.738 354.625 51.9593 341.457C51.9682 340.926 52.163 340.415 52.5088 340.016C52.8546 339.617 53.3289 339.356 53.8466 339.28C56.2543 338.931 58.763 338.642 61.3726 338.412C98.2217 335.165 124.446 304.868 126.019 267.149C126.143 264.286 127.572 263.109 130.306 263.616C130.725 263.688 131.048 263.914 131.273 264.294C132.904 267.054 132.147 269.754 131.937 272.752C128.931 313.54 97.6625 342.171 58.5998 345.573C58.3668 345.596 58.2504 345.727 58.2504 345.965C58.3319 368.399 60.6736 387.324 46.6585 406.178C46.4313 406.494 46.3089 406.873 46.309 407.26C46.3401 433.651 46.3401 460.042 46.309 486.433C46.2857 513.91 81.5272 513.542 81.5388 486.802C81.5621 451.68 81.5699 416.566 81.5621 381.46C81.5621 375.536 87.958 375.489 87.958 381.674C87.9736 424.052 88.0046 466.43 88.0512 508.807C88.0745 523.51 101.973 532.098 114.695 525.044C121.44 521.309 123.2 514.434 123.2 506.405C123.192 465.05 123.215 423.699 123.269 382.352C123.281 375.667 129.665 375.286 129.654 380.936C129.584 416.645 129.595 452.354 129.689 488.063C129.758 515.397 164.406 514.327 164.814 491.857C165.186 471.921 165.28 444.087 165.093 408.354C165.085 407.95 164.961 407.585 164.72 407.26C163.882 406.118 163.12 405.202 162.437 404.512C154.934 396.892 147.56 389.128 140.313 381.222C135.475 375.933 132.116 371.397 130.236 367.614C122.57 352.139 124.201 333.69 133.824 319.57C147.49 299.503 174.355 294.924 194.498 306.926C198.797 309.495 202.513 313.254 206.09 317.025C206.47 317.429 206.668 317.35 206.684 316.787C207.639 287.085 205.041 263.39 184.164 240.992C183.9 240.707 183.578 240.564 183.197 240.564C169.613 240.596 156.033 240.588 142.457 240.54C135.84 240.516 137.016 233.998 140.43 234.022C153.89 234.069 167.481 234.065 181.205 234.01C181.601 234.01 181.799 233.808 181.799 233.403L181.997 0H188.417V235.354C188.417 235.72 188.559 236.074 188.813 236.341C198.568 246.682 205.511 258.724 209.643 272.466C209.667 272.546 209.716 272.616 209.782 272.665C209.848 272.715 209.928 272.742 210.01 272.742C210.092 272.742 210.172 272.715 210.238 272.665C210.304 272.616 210.353 272.546 210.377 272.466C214.493 258.731 221.421 246.69 231.161 236.341C231.423 236.058 231.569 235.684 231.568 235.294L231.499 0H237.953L237.883 231.488C237.883 233.122 238.683 233.942 240.283 233.95C252.764 234.069 265.777 234.16 279.322 234.224C283.551 234.236 283.411 240.647 278.448 240.647C265.012 240.631 251.576 240.604 238.139 240.564C236.52 240.564 235.471 241.206 234.458 242.348C221.27 257.264 214.295 274.845 213.534 295.09C213.255 302.465 213.142 309.765 213.196 316.989C213.195 317.078 213.222 317.165 213.271 317.238C213.321 317.311 213.392 317.366 213.474 317.397C213.556 317.427 213.645 317.43 213.729 317.406C213.813 317.382 213.887 317.332 213.942 317.263C236.054 289.94 278.693 296.601 291.45 329.74C297.624 345.763 294.677 364.914 282.899 377.749C273.936 387.51 264.826 397.137 255.568 406.63C255.295 406.9 255.116 407.255 255.055 407.641C254.601 410.412 255.137 413.933 255.137 415.789C255.183 438.116 255.474 460.502 254.799 482.805C254.667 487.341 254.838 491.084 255.311 494.034C257.467 507.273 273.206 513.411 283.831 504.49C287.893 501.08 289.974 497.265 290.075 493.047C290.51 473.705 290.599 436.545 290.343 381.567C290.331 378.486 292.067 375.703 295.341 377.689C295.665 377.89 295.934 378.171 296.121 378.506C296.309 378.841 296.409 379.219 296.413 379.604C296.739 421.467 296.867 463.428 296.797 505.489C296.786 514.743 298.638 522.082 306.781 525.948C319.13 531.812 331.992 522.356 332.004 508.807C332.027 465.946 332.043 423.084 332.05 380.223C332.05 379.65 332.215 379.091 332.524 378.613C332.832 378.135 333.271 377.76 333.786 377.535C337.293 376.024 338.446 378.902 338.446 381.888C338.446 416.217 338.45 450.55 338.458 484.887C338.458 489.478 338.831 492.84 339.576 494.974C346.054 513.542 373.676 508.938 373.676 489.775C373.692 462.266 373.695 434.745 373.688 407.212C373.68 406.816 373.56 406.459 373.327 406.142C359.242 387.36 361.898 368.268 361.688 346.239C361.688 345.85 361.494 345.636 361.106 345.596C319.165 341.469 288.188 309.888 287.885 266.757C287.862 262.593 293.966 262.082 294.059 267.078C294.887 307.414 325.678 337.948 364.938 339.233C367.051 339.304 368.111 340.616 368.119 343.17C368.131 356.599 366.919 373.585 369.925 384.933C375.214 404.964 392.759 419.214 412.785 420.892C413.313 420.931 413.577 420.678 413.577 420.13C413.601 385.318 413.597 350.493 413.566 315.657C413.566 310.161 412.832 304.214 409.465 300.681C397.364 287.985 387.839 278.188 380.887 271.289C367.094 257.57 360.181 240.889 360.15 221.246C360.042 147.498 359.995 73.7488 360.01 0H366.43C366.375 74.0184 366.465 148.041 366.698 222.067C366.752 239.006 372.173 253.018 382.961 264.104C392.739 274.151 402.533 284.179 412.343 294.186C418.797 300.764 419.962 307.057 419.973 316.953C420.004 352.924 420.008 388.898 419.985 424.876C419.985 426.851 417.539 427.684 415.756 427.648C402.599 427.386 391.027 422.961 381.039 414.373C380.956 414.304 380.856 414.26 380.749 414.246C380.643 414.233 380.535 414.25 380.438 414.295C380.341 414.341 380.258 414.414 380.2 414.506C380.141 414.597 380.109 414.704 380.107 414.813C380.091 438.223 380.091 461.687 380.107 485.208C380.107 490.679 379.583 494.843 378.534 497.697C372.243 514.743 351.797 518.43 339.052 506.393C338.656 506.012 338.462 506.103 338.469 506.666C339.122 543.517 289.481 541.982 290.39 508.831C290.413 508.062 290.137 507.927 289.562 508.427C275.116 520.976 254.822 515.778 249.335 497.21C248.783 495.338 248.535 491.572 248.589 485.91C248.651 479.922 248.558 473.939 248.31 467.96C248.286 467.413 248.077 467.326 247.68 467.698C236.194 478.332 219.184 476.441 210.563 463.214C210.498 463.113 210.408 463.03 210.303 462.973C210.197 462.917 210.08 462.888 209.96 462.889C209.84 462.89 209.722 462.921 209.616 462.98C209.51 463.039 209.419 463.123 209.352 463.226C200.987 476.251 183.407 478.63 172.398 467.627C172.322 467.554 172.227 467.505 172.125 467.487C172.023 467.469 171.917 467.483 171.822 467.526C171.727 467.57 171.647 467.641 171.592 467.731C171.537 467.821 171.509 467.925 171.512 468.031C171.699 477.94 172.875 492.773 169.206 501.076C162.227 516.836 142.865 519.822 130.551 508.415C130.476 508.346 130.383 508.301 130.283 508.285C130.184 508.269 130.082 508.282 129.99 508.324C129.898 508.365 129.819 508.433 129.764 508.519C129.708 508.604 129.678 508.705 129.677 508.807C129.677 543.172 79.9544 542.232 81.5971 506.797C81.5996 506.719 81.5797 506.642 81.54 506.575C81.5002 506.508 81.4423 506.454 81.3732 506.42C81.3041 506.386 81.2269 506.373 81.1508 506.383C81.0747 506.393 81.0031 506.425 80.9447 506.476C63.889 521.416 40.3908 511.103 39.9947 488.146C39.5598 463.626 39.5171 439.154 39.8666 414.73C39.8692 414.635 39.8446 414.542 39.796 414.461C39.7473 414.38 39.6766 414.315 39.5925 414.275C39.5084 414.235 39.4146 414.22 39.3225 414.233C39.2305 414.247 39.1442 414.287 39.0743 414.349C30.162 422.01 14.4577 429.301 2.44652 427.505C1.76646 427.405 1.14464 427.059 0.695219 426.53C0.245799 426.001 -0.00105239 425.325 3.37254e-06 424.627C3.37254e-06 387.451 0.0271865 350.188 0.0815535 312.838C0.0970869 305.756 2.50866 299.718 7.31625 294.722C16.613 285.079 25.9602 275.488 35.358 265.948C47.5051 253.633 53.5826 238.609 53.5903 220.878C53.6059 147.248 53.6097 73.6219 53.602 0ZM146.744 378.7C167.307 400.67 188.347 422.283 209.585 443.575C209.864 443.853 210.14 443.853 210.412 443.575C232.399 421.57 254.026 399.191 275.291 376.44C279.439 371.999 282.32 368.141 283.936 364.866C297.321 337.734 277.33 305.225 247.249 306.819C232.093 307.616 219.557 316.93 213.126 330.978C212.055 333.309 210.389 333.975 208.094 333.023C207.927 332.956 207.776 332.854 207.648 332.726C207.52 332.597 207.418 332.444 207.348 332.274C203.721 323.464 198.175 316.807 190.712 312.302C156.309 291.534 117.421 331.263 136.853 366.222C138.593 369.347 141.89 373.506 146.744 378.7ZM172.701 456.351C179.12 474.074 203.131 470.577 206.626 452.509C207.08 450.213 206.358 449.951 204.96 448.512C194.055 437.37 183.159 426.141 172.27 414.825C171.881 414.421 171.679 414.504 171.664 415.075C171.439 425.987 171.419 436.843 171.606 447.643C171.668 451.616 172.033 454.519 172.701 456.351ZM213.441 450.772C214.105 473.622 248.158 473.753 248.391 449.618C248.523 435.907 248.523 424.432 248.391 415.194C248.383 414.583 248.166 414.496 247.739 414.932L213.872 449.677C213.577 449.979 213.433 450.344 213.441 450.772Z" fill="#231E20"/>
<path d="M209.567 441.012C187.882 419.719 166.399 398.105 145.403 376.135C140.447 370.94 137.08 366.781 135.304 363.656C115.462 328.696 155.169 288.965 190.297 309.734C197.918 314.239 203.58 320.896 207.283 329.707C207.355 329.876 207.459 330.03 207.589 330.158C207.72 330.287 207.875 330.388 208.044 330.456C210.388 331.408 212.089 330.742 213.183 328.41C219.75 314.362 232.549 305.048 248.025 304.251C278.739 302.657 299.152 335.167 285.484 362.3C283.834 365.575 280.892 369.434 276.657 373.875C254.944 396.627 232.862 419.006 210.412 441.012C210.134 441.29 209.853 441.29 209.567 441.012Z" fill="#EC272E"/>
<path d="M248.687 448.96C248.449 473.095 213.678 472.965 213 450.114C212.992 449.685 213.139 449.321 213.44 449.019L248.02 414.273C248.457 413.836 248.679 413.924 248.687 414.534C248.821 423.773 248.821 435.248 248.687 448.96Z" fill="white"/>
<path d="M207.887 451.936C204.318 470.005 179.802 473.503 173.247 455.778C172.565 453.947 172.193 451.044 172.129 447.071C171.939 436.27 171.959 425.413 172.189 414.501C172.205 413.93 172.411 413.847 172.807 414.252C183.926 425.568 195.052 436.797 206.186 447.939C207.613 449.379 208.351 449.64 207.887 451.936Z" fill="white"/>
</svg>
