<svg width="278" height="148" viewBox="0 0 278 148" fill="none" xmlns="http://www.w3.org/2000/svg">
<mask id="path-1-outside-1_2_3" maskUnits="userSpaceOnUse" x="-2" y="0" width="280" height="148" fill="black">
<rect fill="white" x="-2" width="280" height="148"/>
<path d="M68.8253 64.2747C62.3653 61.261 55.5915 57.9734 50.526 53.0254C45.786 48.3915 49.1221 40.8078 55.936 42.4658C55.9982 42.4813 56.0638 42.4745 56.1215 42.4465C56.1792 42.4186 56.2253 42.3712 56.2517 42.3128C56.278 42.2543 56.2831 42.1884 56.266 42.1266C56.2488 42.0648 56.2105 42.011 56.1578 41.9745C52.9302 39.7284 47.2818 35.0331 48.2728 30.5008C48.581 29.0869 49.2519 27.9666 50.2853 27.14C53.5601 24.5207 57.0166 25.1065 60.7468 25.7182C60.7746 25.7228 60.8032 25.719 60.8289 25.7073C60.8546 25.6955 60.8762 25.6764 60.8909 25.6522C60.9056 25.6281 60.9127 25.6001 60.9114 25.5719C60.9102 25.5437 60.9005 25.5165 60.8836 25.4938C56.3513 19.3248 60.558 12.7566 68.016 14.2044C68.8842 14.372 69.8256 14.5185 70.6609 14.8137C82.0362 18.8304 93.7135 22.2132 105.693 24.9624C105.724 24.9693 105.756 24.9667 105.785 24.9549C105.815 24.9431 105.84 24.9226 105.857 24.8962C105.874 24.8698 105.883 24.8387 105.883 24.8071C105.882 24.7755 105.872 24.7448 105.853 24.7191C102.909 20.671 99.4688 16.2898 98.3009 11.3111C97.5082 7.93139 98.6973 4.33908 101.762 2.65511C106.552 0.0193302 113.59 5.9829 116.867 9.10285C124.563 16.4315 132.335 24.1641 140.463 30.5339C143.679 33.0563 147.624 35.4228 151.479 36.958C157.592 39.393 163.823 39.9717 170.373 39.4946C176.644 39.0396 182.874 38.2507 189.061 37.1281C212.753 32.8312 235.047 24.7223 255.945 12.8014C255.964 12.79 255.986 12.7831 256.008 12.781C256.031 12.779 256.053 12.7819 256.075 12.7895C256.096 12.7972 256.115 12.8094 256.131 12.8254C256.147 12.8413 256.159 12.8605 256.167 12.8817L257.278 15.8718C257.292 15.9107 257.292 15.9535 257.278 15.9924C257.264 16.0313 257.236 16.0639 257.2 16.0844C241.045 25.2309 224.03 32.1903 206.155 36.9627C196.98 39.4112 188.375 41.1172 180.339 42.0808C176.84 42.5012 170.616 43.3444 165.251 43.2735C154.235 43.1271 145.144 38.9089 136.799 32.0762C129.867 26.3984 123.506 20.1065 117.015 13.9446C113.8 10.8931 111.478 8.68008 108.3 6.75521C105.296 4.93662 101.373 5.00747 101.668 9.57521C101.859 12.5464 103.848 15.8694 105.506 18.2879C108.059 22.0117 110.924 25.4773 114.102 28.6846C114.29 28.8735 114.46 29.1853 114.576 29.4002C114.6 29.4444 114.611 29.4941 114.61 29.5442C114.608 29.5943 114.594 29.6432 114.568 29.6858C114.542 29.7284 114.505 29.7633 114.461 29.7869C114.418 29.8106 114.368 29.8222 114.319 29.8206C111.95 29.7561 109.646 29.4687 107.406 28.9586C96.0729 26.3748 84.8997 23.2241 73.8861 19.5066C70.5783 18.3918 66.6971 16.6724 63.5497 18.2171C61.2068 19.3696 63.0047 22.7517 64.2504 24.1192C67.7753 27.9855 73.4237 30.4158 78.3453 32.1636C85.9095 34.8513 93.4524 37.5674 101.064 40.1252C101.977 40.4322 102.803 40.9046 103.661 41.3368C104.306 41.6627 104.197 42.3382 103.515 42.3949C101.299 42.5791 98.9828 42.4477 96.5668 42.0005C88.5198 40.5173 80.733 38.1696 73.2066 34.9576C70.3596 33.7436 67.5418 32.4651 64.753 31.122C62.5446 30.0592 60.8364 29.3987 59.6284 29.1404C57.8825 28.7696 55.6222 28.472 53.9211 28.9444C52.5243 29.3294 51.498 30.7252 51.7693 32.173C51.8637 32.669 52.1988 33.3161 52.7744 34.1144C55.5443 37.9453 60.2018 40.633 64.2009 42.7161C73.4355 47.5311 83.2017 50.7368 93.4996 52.3334C95.314 52.6145 98.7492 53.2167 99.9667 54.3551C99.9958 54.3819 100.019 54.4144 100.035 54.4505C100.052 54.4867 100.06 54.5257 100.061 54.5653C100.082 56.7476 88.8021 55.3046 87.2779 55.0211C83.1365 54.2512 78.7976 53.0577 74.2613 51.4406C69.5402 49.7567 64.8662 47.9546 60.039 46.58C58.2804 46.0778 56.5557 45.8069 54.8648 45.7676C52.8193 45.7203 50.5378 47.0595 52.1374 49.4024C54.4661 52.8081 59.2981 55.673 62.9174 57.5648C69.7942 61.1611 76.9974 63.9039 84.5269 65.7933C87.5139 66.542 90.9208 67.1372 94.1366 67.7442C95.2927 67.9615 96.2955 68.4409 97.3124 68.944C97.3832 68.9795 97.4437 69.0327 97.4883 69.0984C97.5329 69.1641 97.56 69.2402 97.5672 69.3195C97.6332 70.0611 97.2038 70.1391 96.5644 70.3233C94.7367 70.8508 92.909 71.0263 91.0813 70.85C85.5131 70.3146 79.8923 69.3762 74.2188 68.0347C73.2625 67.808 72.4933 67.6946 71.9113 67.6946C66.2512 67.7017 67.9759 71.986 71.3663 73.5401C81.7775 78.3078 92.1713 82.1528 102.548 85.0752C104.039 85.4956 105.569 85.8577 107.137 86.1616C112.917 87.2827 118.497 88.1502 123.877 88.7643C133.371 89.8507 142.785 85.2027 150.389 79.8697C157.112 75.154 163.809 70.4012 170.481 65.6115C174.365 62.8246 181.405 57.279 186.52 59.7353C192.119 62.4254 190.699 68.8968 187.849 72.9591C185.736 75.9696 183.297 78.8305 180.532 81.5419C180.508 81.5661 180.491 81.5967 180.484 81.6301C180.476 81.6635 180.478 81.6984 180.489 81.7308C180.501 81.7631 180.521 81.7916 180.548 81.8129C180.574 81.8342 180.607 81.8475 180.641 81.8513C180.828 81.8718 181.036 81.8662 181.266 81.8348C185.079 81.3364 189.021 80.9066 192.702 80.3657C199.936 79.3029 207.2 78.1338 214.33 76.5112C219.058 75.4366 224.171 75.1012 227.21 79.6194C227.306 79.7642 227.437 79.8115 227.604 79.7611C243.958 74.8139 259.684 68.3449 274.782 60.3541C274.803 60.3432 274.826 60.3368 274.849 60.3354C274.872 60.334 274.896 60.3375 274.917 60.3457C274.939 60.354 274.959 60.3668 274.976 60.3833C274.992 60.3998 275.005 60.4196 275.013 60.4415L276.125 63.3607C276.161 63.4552 276.134 63.526 276.044 63.5733C264.064 69.9139 251.825 75.2681 239.328 79.6359C236.309 80.6909 232.512 81.9434 227.937 83.3936C227.735 83.4581 227.589 83.6439 227.498 83.9509C227.042 85.5066 226.274 86.867 225.195 88.0322C225.171 88.0589 225.155 88.0925 225.151 88.1284C225.146 88.1643 225.153 88.2007 225.17 88.2326C225.187 88.2644 225.214 88.2902 225.246 88.3064C225.279 88.3225 225.315 88.3282 225.351 88.3226C228.899 87.7676 233.25 88.1857 235.709 91.2725C237.464 93.4808 237.384 96.4567 235.614 98.8492C233.793 101.308 230.976 103.332 228.225 104.636C228.093 104.697 227.887 104.881 227.802 104.983C227.777 105.012 227.761 105.048 227.756 105.086C227.751 105.125 227.757 105.163 227.774 105.198C227.79 105.233 227.816 105.263 227.849 105.283C227.882 105.303 227.92 105.314 227.958 105.314C230.78 105.297 233.503 106.683 234.67 109.399C238.179 117.559 217.32 123.984 212.374 125.377C212.351 125.384 212.33 125.395 212.312 125.411C212.294 125.427 212.28 125.447 212.27 125.47C212.261 125.492 212.257 125.516 212.258 125.54C212.259 125.564 212.266 125.587 212.278 125.609C212.322 125.689 212.407 125.766 212.535 125.84C214.63 127.033 216.064 128.728 215.784 131.237C215.189 136.57 207.965 139.498 203.482 140.677C184.763 145.592 164.34 146.87 144.639 146.189C137.113 145.93 129.53 145.273 122.069 144.248C78.5105 138.27 37.1743 120.909 1.73644 94.7751C0.561469 93.9083 -0.212405 90.6939 0.0518446 89.3548C0.0541112 89.3428 0.0594123 89.3316 0.0672387 89.3223C0.0750651 89.313 0.0851527 89.3059 0.0965302 89.3016C0.107908 89.2974 0.120193 89.2961 0.132201 89.2979C0.14421 89.2998 0.155537 89.3047 0.165094 89.3122C38.3539 118.405 84.9917 137.88 132.826 141.983C138.936 142.507 145.98 142.794 153.956 142.843C157.915 142.869 161.988 142.623 165.991 142.481C177.53 142.072 188.916 140.571 200.148 137.977C203.841 137.125 207.191 135.882 210.166 133.941C211.86 132.836 213.696 130.004 210.768 128.915C209.331 128.379 207.849 128.398 206.113 128.554C200.32 129.073 194.516 129.202 188.703 128.941C187.7 128.896 183.651 128.344 183.161 127.278C183.144 127.241 183.135 127.201 183.136 127.161C183.137 127.121 183.147 127.082 183.165 127.047C184.017 125.413 189.363 125.495 190.932 125.405C201.849 124.777 212.721 122.484 222.727 117.992C225.268 116.851 229.164 114.983 231.035 112.392C232.613 110.205 229.664 108.851 227.939 108.778C224.799 108.644 222.293 109.213 219.46 109.862C212.05 111.558 207.002 112.609 204.317 113.015C198.346 113.918 193.103 114.409 187.32 113.665C186.301 113.535 181.962 113.074 182.59 111.726C182.621 111.657 182.672 111.606 182.743 111.575C184.848 110.661 187.634 110.531 190.012 110.55C191.258 110.559 192.466 110.321 193.712 110.243C204.286 109.584 215.258 107.217 224.787 102.479C227.84 100.963 230.28 99.5932 232.344 97.3259C234.685 94.7586 233.017 92.3542 230.096 91.8276C225.514 91.0033 221.007 92.9872 216.76 94.383C208.573 97.0731 200.509 98.6768 192.004 99.5743C189.083 99.8829 186.153 99.9868 183.215 99.8861C182.27 99.853 181.366 99.6026 180.504 99.135C180.433 99.0963 180.373 99.0411 180.328 98.9741C180.283 98.907 180.255 98.8302 180.247 98.75C180.212 98.421 180.392 98.2076 180.787 98.11C184.286 97.2456 188.139 96.5465 191.357 95.8899C197.83 94.5704 204.257 93.0573 210.64 91.3505C214.222 90.394 223.537 87.3519 224.112 82.907C224.693 78.4101 217.933 79.2746 215.526 79.7965C205.114 82.0607 194.614 83.7848 184.026 84.9689C179.692 85.453 177.229 85.7577 173.777 85.753C173.068 85.7514 172.352 85.6924 171.63 85.5759C171.548 85.5624 171.47 85.5268 171.406 85.4727C171.342 85.4186 171.294 85.3481 171.267 85.2688C171.144 84.9075 171.574 84.7209 171.786 84.5556C176.51 80.9066 181.021 76.8041 184.458 71.8868C185.791 69.9832 188.29 65.1887 185.683 63.2709C184.3 62.253 182.125 62.6167 180.629 63.3772C177.109 65.1722 174.207 66.9932 170.92 69.4305C162.535 75.6539 155.542 80.9751 147.289 85.8805C136.992 92 126.672 94.0713 114.611 91.5512C72.9565 82.8456 35.2608 61.6696 6.08477 30.6945C6.03488 30.6418 6.00019 30.5765 5.9844 30.5058C5.96861 30.4351 5.97231 30.3616 5.99511 30.293L7.08986 27.003C7.09646 26.9825 7.10833 26.9641 7.12428 26.9496C7.14024 26.9352 7.15971 26.9252 7.18074 26.9206C7.20178 26.9161 7.22364 26.9171 7.24413 26.9237C7.26462 26.9303 7.28302 26.9422 7.29749 26.9581C23.7014 44.7646 42.6983 59.1488 64.2882 70.1107C64.3889 70.1611 64.4478 70.1312 64.4651 70.021C64.9984 66.8326 65.9822 65.8429 68.8229 64.5227C68.8465 64.5119 68.8666 64.4945 68.8807 64.4727C68.8949 64.4509 68.9025 64.4255 68.9028 64.3995C68.903 64.3734 68.8959 64.3479 68.8821 64.3258C68.8684 64.3037 68.8487 64.286 68.8253 64.2747Z"/>
</mask>
<path d="M68.8253 64.2747C62.3653 61.261 55.5915 57.9734 50.526 53.0254C45.786 48.3915 49.1221 40.8078 55.936 42.4658C55.9982 42.4813 56.0638 42.4745 56.1215 42.4465C56.1792 42.4186 56.2253 42.3712 56.2517 42.3128C56.278 42.2543 56.2831 42.1884 56.266 42.1266C56.2488 42.0648 56.2105 42.011 56.1578 41.9745C52.9302 39.7284 47.2818 35.0331 48.2728 30.5008C48.581 29.0869 49.2519 27.9666 50.2853 27.14C53.5601 24.5207 57.0166 25.1065 60.7468 25.7182C60.7746 25.7228 60.8032 25.719 60.8289 25.7073C60.8546 25.6955 60.8762 25.6764 60.8909 25.6522C60.9056 25.6281 60.9127 25.6001 60.9114 25.5719C60.9102 25.5437 60.9005 25.5165 60.8836 25.4938C56.3513 19.3248 60.558 12.7566 68.016 14.2044C68.8842 14.372 69.8256 14.5185 70.6609 14.8137C82.0362 18.8304 93.7135 22.2132 105.693 24.9624C105.724 24.9693 105.756 24.9667 105.785 24.9549C105.815 24.9431 105.84 24.9226 105.857 24.8962C105.874 24.8698 105.883 24.8387 105.883 24.8071C105.882 24.7755 105.872 24.7448 105.853 24.7191C102.909 20.671 99.4688 16.2898 98.3009 11.3111C97.5082 7.93139 98.6973 4.33908 101.762 2.65511C106.552 0.0193302 113.59 5.9829 116.867 9.10285C124.563 16.4315 132.335 24.1641 140.463 30.5339C143.679 33.0563 147.624 35.4228 151.479 36.958C157.592 39.393 163.823 39.9717 170.373 39.4946C176.644 39.0396 182.874 38.2507 189.061 37.1281C212.753 32.8312 235.047 24.7223 255.945 12.8014C255.964 12.79 255.986 12.7831 256.008 12.781C256.031 12.779 256.053 12.7819 256.075 12.7895C256.096 12.7972 256.115 12.8094 256.131 12.8254C256.147 12.8413 256.159 12.8605 256.167 12.8817L257.278 15.8718C257.292 15.9107 257.292 15.9535 257.278 15.9924C257.264 16.0313 257.236 16.0639 257.2 16.0844C241.045 25.2309 224.03 32.1903 206.155 36.9627C196.98 39.4112 188.375 41.1172 180.339 42.0808C176.84 42.5012 170.616 43.3444 165.251 43.2735C154.235 43.1271 145.144 38.9089 136.799 32.0762C129.867 26.3984 123.506 20.1065 117.015 13.9446C113.8 10.8931 111.478 8.68008 108.3 6.75521C105.296 4.93662 101.373 5.00747 101.668 9.57521C101.859 12.5464 103.848 15.8694 105.506 18.2879C108.059 22.0117 110.924 25.4773 114.102 28.6846C114.29 28.8735 114.46 29.1853 114.576 29.4002C114.6 29.4444 114.611 29.4941 114.61 29.5442C114.608 29.5943 114.594 29.6432 114.568 29.6858C114.542 29.7284 114.505 29.7633 114.461 29.7869C114.418 29.8106 114.368 29.8222 114.319 29.8206C111.95 29.7561 109.646 29.4687 107.406 28.9586C96.0729 26.3748 84.8997 23.2241 73.8861 19.5066C70.5783 18.3918 66.6971 16.6724 63.5497 18.2171C61.2068 19.3696 63.0047 22.7517 64.2504 24.1192C67.7753 27.9855 73.4237 30.4158 78.3453 32.1636C85.9095 34.8513 93.4524 37.5674 101.064 40.1252C101.977 40.4322 102.803 40.9046 103.661 41.3368C104.306 41.6627 104.197 42.3382 103.515 42.3949C101.299 42.5791 98.9828 42.4477 96.5668 42.0005C88.5198 40.5173 80.733 38.1696 73.2066 34.9576C70.3596 33.7436 67.5418 32.4651 64.753 31.122C62.5446 30.0592 60.8364 29.3987 59.6284 29.1404C57.8825 28.7696 55.6222 28.472 53.9211 28.9444C52.5243 29.3294 51.498 30.7252 51.7693 32.173C51.8637 32.669 52.1988 33.3161 52.7744 34.1144C55.5443 37.9453 60.2018 40.633 64.2009 42.7161C73.4355 47.5311 83.2017 50.7368 93.4996 52.3334C95.314 52.6145 98.7492 53.2167 99.9667 54.3551C99.9958 54.3819 100.019 54.4144 100.035 54.4505C100.052 54.4867 100.06 54.5257 100.061 54.5653C100.082 56.7476 88.8021 55.3046 87.2779 55.0211C83.1365 54.2512 78.7976 53.0577 74.2613 51.4406C69.5402 49.7567 64.8662 47.9546 60.039 46.58C58.2804 46.0778 56.5557 45.8069 54.8648 45.7676C52.8193 45.7203 50.5378 47.0595 52.1374 49.4024C54.4661 52.8081 59.2981 55.673 62.9174 57.5648C69.7942 61.1611 76.9974 63.9039 84.5269 65.7933C87.5139 66.542 90.9208 67.1372 94.1366 67.7442C95.2927 67.9615 96.2955 68.4409 97.3124 68.944C97.3832 68.9795 97.4437 69.0327 97.4883 69.0984C97.5329 69.1641 97.56 69.2402 97.5672 69.3195C97.6332 70.0611 97.2038 70.1391 96.5644 70.3233C94.7367 70.8508 92.909 71.0263 91.0813 70.85C85.5131 70.3146 79.8923 69.3762 74.2188 68.0347C73.2625 67.808 72.4933 67.6946 71.9113 67.6946C66.2512 67.7017 67.9759 71.986 71.3663 73.5401C81.7775 78.3078 92.1713 82.1528 102.548 85.0752C104.039 85.4956 105.569 85.8577 107.137 86.1616C112.917 87.2827 118.497 88.1502 123.877 88.7643C133.371 89.8507 142.785 85.2027 150.389 79.8697C157.112 75.154 163.809 70.4012 170.481 65.6115C174.365 62.8246 181.405 57.279 186.52 59.7353C192.119 62.4254 190.699 68.8968 187.849 72.9591C185.736 75.9696 183.297 78.8305 180.532 81.5419C180.508 81.5661 180.491 81.5967 180.484 81.6301C180.476 81.6635 180.478 81.6984 180.489 81.7308C180.501 81.7631 180.521 81.7916 180.548 81.8129C180.574 81.8342 180.607 81.8475 180.641 81.8513C180.828 81.8718 181.036 81.8662 181.266 81.8348C185.079 81.3364 189.021 80.9066 192.702 80.3657C199.936 79.3029 207.2 78.1338 214.33 76.5112C219.058 75.4366 224.171 75.1012 227.21 79.6194C227.306 79.7642 227.437 79.8115 227.604 79.7611C243.958 74.8139 259.684 68.3449 274.782 60.3541C274.803 60.3432 274.826 60.3368 274.849 60.3354C274.872 60.334 274.896 60.3375 274.917 60.3457C274.939 60.354 274.959 60.3668 274.976 60.3833C274.992 60.3998 275.005 60.4196 275.013 60.4415L276.125 63.3607C276.161 63.4552 276.134 63.526 276.044 63.5733C264.064 69.9139 251.825 75.2681 239.328 79.6359C236.309 80.6909 232.512 81.9434 227.937 83.3936C227.735 83.4581 227.589 83.6439 227.498 83.9509C227.042 85.5066 226.274 86.867 225.195 88.0322C225.171 88.0589 225.155 88.0925 225.151 88.1284C225.146 88.1643 225.153 88.2007 225.17 88.2326C225.187 88.2644 225.214 88.2902 225.246 88.3064C225.279 88.3225 225.315 88.3282 225.351 88.3226C228.899 87.7676 233.25 88.1857 235.709 91.2725C237.464 93.4808 237.384 96.4567 235.614 98.8492C233.793 101.308 230.976 103.332 228.225 104.636C228.093 104.697 227.887 104.881 227.802 104.983C227.777 105.012 227.761 105.048 227.756 105.086C227.751 105.125 227.757 105.163 227.774 105.198C227.79 105.233 227.816 105.263 227.849 105.283C227.882 105.303 227.92 105.314 227.958 105.314C230.78 105.297 233.503 106.683 234.67 109.399C238.179 117.559 217.32 123.984 212.374 125.377C212.351 125.384 212.33 125.395 212.312 125.411C212.294 125.427 212.28 125.447 212.27 125.47C212.261 125.492 212.257 125.516 212.258 125.54C212.259 125.564 212.266 125.587 212.278 125.609C212.322 125.689 212.407 125.766 212.535 125.84C214.63 127.033 216.064 128.728 215.784 131.237C215.189 136.57 207.965 139.498 203.482 140.677C184.763 145.592 164.34 146.87 144.639 146.189C137.113 145.93 129.53 145.273 122.069 144.248C78.5105 138.27 37.1743 120.909 1.73644 94.7751C0.561469 93.9083 -0.212405 90.6939 0.0518446 89.3548C0.0541112 89.3428 0.0594123 89.3316 0.0672387 89.3223C0.0750651 89.313 0.0851527 89.3059 0.0965302 89.3016C0.107908 89.2974 0.120193 89.2961 0.132201 89.2979C0.14421 89.2998 0.155537 89.3047 0.165094 89.3122C38.3539 118.405 84.9917 137.88 132.826 141.983C138.936 142.507 145.98 142.794 153.956 142.843C157.915 142.869 161.988 142.623 165.991 142.481C177.53 142.072 188.916 140.571 200.148 137.977C203.841 137.125 207.191 135.882 210.166 133.941C211.86 132.836 213.696 130.004 210.768 128.915C209.331 128.379 207.849 128.398 206.113 128.554C200.32 129.073 194.516 129.202 188.703 128.941C187.7 128.896 183.651 128.344 183.161 127.278C183.144 127.241 183.135 127.201 183.136 127.161C183.137 127.121 183.147 127.082 183.165 127.047C184.017 125.413 189.363 125.495 190.932 125.405C201.849 124.777 212.721 122.484 222.727 117.992C225.268 116.851 229.164 114.983 231.035 112.392C232.613 110.205 229.664 108.851 227.939 108.778C224.799 108.644 222.293 109.213 219.46 109.862C212.05 111.558 207.002 112.609 204.317 113.015C198.346 113.918 193.103 114.409 187.32 113.665C186.301 113.535 181.962 113.074 182.59 111.726C182.621 111.657 182.672 111.606 182.743 111.575C184.848 110.661 187.634 110.531 190.012 110.55C191.258 110.559 192.466 110.321 193.712 110.243C204.286 109.584 215.258 107.217 224.787 102.479C227.84 100.963 230.28 99.5932 232.344 97.3259C234.685 94.7586 233.017 92.3542 230.096 91.8276C225.514 91.0033 221.007 92.9872 216.76 94.383C208.573 97.0731 200.509 98.6768 192.004 99.5743C189.083 99.8829 186.153 99.9868 183.215 99.8861C182.27 99.853 181.366 99.6026 180.504 99.135C180.433 99.0963 180.373 99.0411 180.328 98.9741C180.283 98.907 180.255 98.8302 180.247 98.75C180.212 98.421 180.392 98.2076 180.787 98.11C184.286 97.2456 188.139 96.5465 191.357 95.8899C197.83 94.5704 204.257 93.0573 210.64 91.3505C214.222 90.394 223.537 87.3519 224.112 82.907C224.693 78.4101 217.933 79.2746 215.526 79.7965C205.114 82.0607 194.614 83.7848 184.026 84.9689C179.692 85.453 177.229 85.7577 173.777 85.753C173.068 85.7514 172.352 85.6924 171.63 85.5759C171.548 85.5624 171.47 85.5268 171.406 85.4727C171.342 85.4186 171.294 85.3481 171.267 85.2688C171.144 84.9075 171.574 84.7209 171.786 84.5556C176.51 80.9066 181.021 76.8041 184.458 71.8868C185.791 69.9832 188.29 65.1887 185.683 63.2709C184.3 62.253 182.125 62.6167 180.629 63.3772C177.109 65.1722 174.207 66.9932 170.92 69.4305C162.535 75.6539 155.542 80.9751 147.289 85.8805C136.992 92 126.672 94.0713 114.611 91.5512C72.9565 82.8456 35.2608 61.6696 6.08477 30.6945C6.03488 30.6418 6.00019 30.5765 5.9844 30.5058C5.96861 30.4351 5.97231 30.3616 5.99511 30.293L7.08986 27.003C7.09646 26.9825 7.10833 26.9641 7.12428 26.9496C7.14024 26.9352 7.15971 26.9252 7.18074 26.9206C7.20178 26.9161 7.22364 26.9171 7.24413 26.9237C7.26462 26.9303 7.28302 26.9422 7.29749 26.9581C23.7014 44.7646 42.6983 59.1488 64.2882 70.1107C64.3889 70.1611 64.4478 70.1312 64.4651 70.021C64.9984 66.8326 65.9822 65.8429 68.8229 64.5227C68.8465 64.5119 68.8666 64.4945 68.8807 64.4727C68.8949 64.4509 68.9025 64.4255 68.9028 64.3995C68.903 64.3734 68.8959 64.3479 68.8821 64.3258C68.8684 64.3037 68.8487 64.286 68.8253 64.2747Z" fill="white"/>
<path d="M68.8253 64.2747C62.3653 61.261 55.5915 57.9734 50.526 53.0254C45.786 48.3915 49.1221 40.8078 55.936 42.4658C55.9982 42.4813 56.0638 42.4745 56.1215 42.4465C56.1792 42.4186 56.2253 42.3712 56.2517 42.3128C56.278 42.2543 56.2831 42.1884 56.266 42.1266C56.2488 42.0648 56.2105 42.011 56.1578 41.9745C52.9302 39.7284 47.2818 35.0331 48.2728 30.5008C48.581 29.0869 49.2519 27.9666 50.2853 27.14C53.5601 24.5207 57.0166 25.1065 60.7468 25.7182C60.7746 25.7228 60.8032 25.719 60.8289 25.7073C60.8546 25.6955 60.8762 25.6764 60.8909 25.6522C60.9056 25.6281 60.9127 25.6001 60.9114 25.5719C60.9102 25.5437 60.9005 25.5165 60.8836 25.4938C56.3513 19.3248 60.558 12.7566 68.016 14.2044C68.8842 14.372 69.8256 14.5185 70.6609 14.8137C82.0362 18.8304 93.7135 22.2132 105.693 24.9624C105.724 24.9693 105.756 24.9667 105.785 24.9549C105.815 24.9431 105.84 24.9226 105.857 24.8962C105.874 24.8698 105.883 24.8387 105.883 24.8071C105.882 24.7755 105.872 24.7448 105.853 24.7191C102.909 20.671 99.4688 16.2898 98.3009 11.3111C97.5082 7.93139 98.6973 4.33908 101.762 2.65511C106.552 0.0193302 113.59 5.9829 116.867 9.10285C124.563 16.4315 132.335 24.1641 140.463 30.5339C143.679 33.0563 147.624 35.4228 151.479 36.958C157.592 39.393 163.823 39.9717 170.373 39.4946C176.644 39.0396 182.874 38.2507 189.061 37.1281C212.753 32.8312 235.047 24.7223 255.945 12.8014C255.964 12.79 255.986 12.7831 256.008 12.781C256.031 12.779 256.053 12.7819 256.075 12.7895C256.096 12.7972 256.115 12.8094 256.131 12.8254C256.147 12.8413 256.159 12.8605 256.167 12.8817L257.278 15.8718C257.292 15.9107 257.292 15.9535 257.278 15.9924C257.264 16.0313 257.236 16.0639 257.2 16.0844C241.045 25.2309 224.03 32.1903 206.155 36.9627C196.98 39.4112 188.375 41.1172 180.339 42.0808C176.84 42.5012 170.616 43.3444 165.251 43.2735C154.235 43.1271 145.144 38.9089 136.799 32.0762C129.867 26.3984 123.506 20.1065 117.015 13.9446C113.8 10.8931 111.478 8.68008 108.3 6.75521C105.296 4.93662 101.373 5.00747 101.668 9.57521C101.859 12.5464 103.848 15.8694 105.506 18.2879C108.059 22.0117 110.924 25.4773 114.102 28.6846C114.29 28.8735 114.46 29.1853 114.576 29.4002C114.6 29.4444 114.611 29.4941 114.61 29.5442C114.608 29.5943 114.594 29.6432 114.568 29.6858C114.542 29.7284 114.505 29.7633 114.461 29.7869C114.418 29.8106 114.368 29.8222 114.319 29.8206C111.95 29.7561 109.646 29.4687 107.406 28.9586C96.0729 26.3748 84.8997 23.2241 73.8861 19.5066C70.5783 18.3918 66.6971 16.6724 63.5497 18.2171C61.2068 19.3696 63.0047 22.7517 64.2504 24.1192C67.7753 27.9855 73.4237 30.4158 78.3453 32.1636C85.9095 34.8513 93.4524 37.5674 101.064 40.1252C101.977 40.4322 102.803 40.9046 103.661 41.3368C104.306 41.6627 104.197 42.3382 103.515 42.3949C101.299 42.5791 98.9828 42.4477 96.5668 42.0005C88.5198 40.5173 80.733 38.1696 73.2066 34.9576C70.3596 33.7436 67.5418 32.4651 64.753 31.122C62.5446 30.0592 60.8364 29.3987 59.6284 29.1404C57.8825 28.7696 55.6222 28.472 53.9211 28.9444C52.5243 29.3294 51.498 30.7252 51.7693 32.173C51.8637 32.669 52.1988 33.3161 52.7744 34.1144C55.5443 37.9453 60.2018 40.633 64.2009 42.7161C73.4355 47.5311 83.2017 50.7368 93.4996 52.3334C95.314 52.6145 98.7492 53.2167 99.9667 54.3551C99.9958 54.3819 100.019 54.4144 100.035 54.4505C100.052 54.4867 100.06 54.5257 100.061 54.5653C100.082 56.7476 88.8021 55.3046 87.2779 55.0211C83.1365 54.2512 78.7976 53.0577 74.2613 51.4406C69.5402 49.7567 64.8662 47.9546 60.039 46.58C58.2804 46.0778 56.5557 45.8069 54.8648 45.7676C52.8193 45.7203 50.5378 47.0595 52.1374 49.4024C54.4661 52.8081 59.2981 55.673 62.9174 57.5648C69.7942 61.1611 76.9974 63.9039 84.5269 65.7933C87.5139 66.542 90.9208 67.1372 94.1366 67.7442C95.2927 67.9615 96.2955 68.4409 97.3124 68.944C97.3832 68.9795 97.4437 69.0327 97.4883 69.0984C97.5329 69.1641 97.56 69.2402 97.5672 69.3195C97.6332 70.0611 97.2038 70.1391 96.5644 70.3233C94.7367 70.8508 92.909 71.0263 91.0813 70.85C85.5131 70.3146 79.8923 69.3762 74.2188 68.0347C73.2625 67.808 72.4933 67.6946 71.9113 67.6946C66.2512 67.7017 67.9759 71.986 71.3663 73.5401C81.7775 78.3078 92.1713 82.1528 102.548 85.0752C104.039 85.4956 105.569 85.8577 107.137 86.1616C112.917 87.2827 118.497 88.1502 123.877 88.7643C133.371 89.8507 142.785 85.2027 150.389 79.8697C157.112 75.154 163.809 70.4012 170.481 65.6115C174.365 62.8246 181.405 57.279 186.52 59.7353C192.119 62.4254 190.699 68.8968 187.849 72.9591C185.736 75.9696 183.297 78.8305 180.532 81.5419C180.508 81.5661 180.491 81.5967 180.484 81.6301C180.476 81.6635 180.478 81.6984 180.489 81.7308C180.501 81.7631 180.521 81.7916 180.548 81.8129C180.574 81.8342 180.607 81.8475 180.641 81.8513C180.828 81.8718 181.036 81.8662 181.266 81.8348C185.079 81.3364 189.021 80.9066 192.702 80.3657C199.936 79.3029 207.2 78.1338 214.33 76.5112C219.058 75.4366 224.171 75.1012 227.21 79.6194C227.306 79.7642 227.437 79.8115 227.604 79.7611C243.958 74.8139 259.684 68.3449 274.782 60.3541C274.803 60.3432 274.826 60.3368 274.849 60.3354C274.872 60.334 274.896 60.3375 274.917 60.3457C274.939 60.354 274.959 60.3668 274.976 60.3833C274.992 60.3998 275.005 60.4196 275.013 60.4415L276.125 63.3607C276.161 63.4552 276.134 63.526 276.044 63.5733C264.064 69.9139 251.825 75.2681 239.328 79.6359C236.309 80.6909 232.512 81.9434 227.937 83.3936C227.735 83.4581 227.589 83.6439 227.498 83.9509C227.042 85.5066 226.274 86.867 225.195 88.0322C225.171 88.0589 225.155 88.0925 225.151 88.1284C225.146 88.1643 225.153 88.2007 225.17 88.2326C225.187 88.2644 225.214 88.2902 225.246 88.3064C225.279 88.3225 225.315 88.3282 225.351 88.3226C228.899 87.7676 233.25 88.1857 235.709 91.2725C237.464 93.4808 237.384 96.4567 235.614 98.8492C233.793 101.308 230.976 103.332 228.225 104.636C228.093 104.697 227.887 104.881 227.802 104.983C227.777 105.012 227.761 105.048 227.756 105.086C227.751 105.125 227.757 105.163 227.774 105.198C227.79 105.233 227.816 105.263 227.849 105.283C227.882 105.303 227.92 105.314 227.958 105.314C230.78 105.297 233.503 106.683 234.67 109.399C238.179 117.559 217.32 123.984 212.374 125.377C212.351 125.384 212.33 125.395 212.312 125.411C212.294 125.427 212.28 125.447 212.27 125.47C212.261 125.492 212.257 125.516 212.258 125.54C212.259 125.564 212.266 125.587 212.278 125.609C212.322 125.689 212.407 125.766 212.535 125.84C214.63 127.033 216.064 128.728 215.784 131.237C215.189 136.57 207.965 139.498 203.482 140.677C184.763 145.592 164.34 146.87 144.639 146.189C137.113 145.93 129.53 145.273 122.069 144.248C78.5105 138.27 37.1743 120.909 1.73644 94.7751C0.561469 93.9083 -0.212405 90.6939 0.0518446 89.3548C0.0541112 89.3428 0.0594123 89.3316 0.0672387 89.3223C0.0750651 89.313 0.0851527 89.3059 0.0965302 89.3016C0.107908 89.2974 0.120193 89.2961 0.132201 89.2979C0.14421 89.2998 0.155537 89.3047 0.165094 89.3122C38.3539 118.405 84.9917 137.88 132.826 141.983C138.936 142.507 145.98 142.794 153.956 142.843C157.915 142.869 161.988 142.623 165.991 142.481C177.53 142.072 188.916 140.571 200.148 137.977C203.841 137.125 207.191 135.882 210.166 133.941C211.86 132.836 213.696 130.004 210.768 128.915C209.331 128.379 207.849 128.398 206.113 128.554C200.32 129.073 194.516 129.202 188.703 128.941C187.7 128.896 183.651 128.344 183.161 127.278C183.144 127.241 183.135 127.201 183.136 127.161C183.137 127.121 183.147 127.082 183.165 127.047C184.017 125.413 189.363 125.495 190.932 125.405C201.849 124.777 212.721 122.484 222.727 117.992C225.268 116.851 229.164 114.983 231.035 112.392C232.613 110.205 229.664 108.851 227.939 108.778C224.799 108.644 222.293 109.213 219.46 109.862C212.05 111.558 207.002 112.609 204.317 113.015C198.346 113.918 193.103 114.409 187.32 113.665C186.301 113.535 181.962 113.074 182.59 111.726C182.621 111.657 182.672 111.606 182.743 111.575C184.848 110.661 187.634 110.531 190.012 110.55C191.258 110.559 192.466 110.321 193.712 110.243C204.286 109.584 215.258 107.217 224.787 102.479C227.84 100.963 230.28 99.5932 232.344 97.3259C234.685 94.7586 233.017 92.3542 230.096 91.8276C225.514 91.0033 221.007 92.9872 216.76 94.383C208.573 97.0731 200.509 98.6768 192.004 99.5743C189.083 99.8829 186.153 99.9868 183.215 99.8861C182.27 99.853 181.366 99.6026 180.504 99.135C180.433 99.0963 180.373 99.0411 180.328 98.9741C180.283 98.907 180.255 98.8302 180.247 98.75C180.212 98.421 180.392 98.2076 180.787 98.11C184.286 97.2456 188.139 96.5465 191.357 95.8899C197.83 94.5704 204.257 93.0573 210.64 91.3505C214.222 90.394 223.537 87.3519 224.112 82.907C224.693 78.4101 217.933 79.2746 215.526 79.7965C205.114 82.0607 194.614 83.7848 184.026 84.9689C179.692 85.453 177.229 85.7577 173.777 85.753C173.068 85.7514 172.352 85.6924 171.63 85.5759C171.548 85.5624 171.47 85.5268 171.406 85.4727C171.342 85.4186 171.294 85.3481 171.267 85.2688C171.144 84.9075 171.574 84.7209 171.786 84.5556C176.51 80.9066 181.021 76.8041 184.458 71.8868C185.791 69.9832 188.29 65.1887 185.683 63.2709C184.3 62.253 182.125 62.6167 180.629 63.3772C177.109 65.1722 174.207 66.9932 170.92 69.4305C162.535 75.6539 155.542 80.9751 147.289 85.8805C136.992 92 126.672 94.0713 114.611 91.5512C72.9565 82.8456 35.2608 61.6696 6.08477 30.6945C6.03488 30.6418 6.00019 30.5765 5.9844 30.5058C5.96861 30.4351 5.97231 30.3616 5.99511 30.293L7.08986 27.003C7.09646 26.9825 7.10833 26.9641 7.12428 26.9496C7.14024 26.9352 7.15971 26.9252 7.18074 26.9206C7.20178 26.9161 7.22364 26.9171 7.24413 26.9237C7.26462 26.9303 7.28302 26.9422 7.29749 26.9581C23.7014 44.7646 42.6983 59.1488 64.2882 70.1107C64.3889 70.1611 64.4478 70.1312 64.4651 70.021C64.9984 66.8326 65.9822 65.8429 68.8229 64.5227C68.8465 64.5119 68.8666 64.4945 68.8807 64.4727C68.8949 64.4509 68.9025 64.4255 68.9028 64.3995C68.903 64.3734 68.8959 64.3479 68.8821 64.3258C68.8684 64.3037 68.8487 64.286 68.8253 64.2747Z" stroke="white" stroke-width="3" mask="url(#path-1-outside-1_2_3)"/>
</svg>
